<?xml version="1.0" encoding="iso-8859-1"?>
<!-- Uploaded to: SVG Repo, www.svgrepo.com, Generator: SVG Repo Mixer Tools -->
<svg fill="#000000" height="800px" width="800px" version="1.1" id="Layer_1" xmlns="http://www.w3.org/2000/svg" xmlns:xlink="http://www.w3.org/1999/xlink" 
	 viewBox="0 0 512 512" xml:space="preserve">
<g>
	<g>
		<path d="M503.467,179.2C409.361,179.2,332.8,102.639,332.8,8.533c0-4.71-3.823-8.533-8.533-8.533H187.733
			c-4.71,0-8.533,3.823-8.533,8.533c0,94.106-76.561,170.667-170.667,170.667c-4.71,0-8.533,3.823-8.533,8.533v315.733
			C0,508.186,3.823,512,8.533,512h494.933c4.71,0,8.533-3.814,8.533-8.533V187.733C512,183.023,508.177,179.2,503.467,179.2z
			 M42.667,226.287c0-4.087,2.893-7.595,6.895-8.371c9.37-1.835,18.697-4.326,27.725-7.407c4.471-1.536,9.31,0.853,10.829,5.316
			c1.527,4.463-0.853,9.31-5.316,10.829c-7.535,2.577-15.266,4.77-23.066,6.545v22.955c0,4.71-3.823,8.533-8.533,8.533
			s-8.533-3.823-8.533-8.533V226.287z M42.667,311.347c0-4.71,3.823-8.533,8.533-8.533s8.533,3.823,8.533,8.533v64.393
			c0,4.71-3.823,8.533-8.533,8.533s-8.533-3.823-8.533-8.533V311.347z M81.067,469.333H51.2c-4.71,0-8.533-3.814-8.533-8.533
			v-29.867c0-4.71,3.823-8.533,8.533-8.533s8.533,3.823,8.533,8.533v21.333h21.333c4.71,0,8.533,3.823,8.533,8.533
			C89.6,465.519,85.777,469.333,81.067,469.333z M182.135,469.333H127.71c-4.71,0-8.533-3.814-8.533-8.533
			c0-4.71,3.823-8.533,8.533-8.533h54.426c4.71,0,8.533,3.823,8.533,8.533C190.669,465.519,186.846,469.333,182.135,469.333z
			 M196.386,141.807c-15.053,21.163-33.425,39.526-54.596,54.596c-1.502,1.067-3.234,1.579-4.941,1.579
			c-2.671,0-5.291-1.246-6.963-3.593c-2.731-3.831-1.835-9.165,2.014-11.895c19.61-13.961,36.634-30.976,50.577-50.586
			c2.731-3.84,8.064-4.736,11.904-2.005C198.221,132.634,199.117,137.967,196.386,141.807z M283.213,469.333h-54.426
			c-4.71,0-8.533-3.814-8.533-8.533c0-4.71,3.823-8.533,8.533-8.533h54.426c4.71,0,8.533,3.823,8.533,8.533
			C291.746,465.519,287.923,469.333,283.213,469.333z M296.175,88.124c-0.913,0.307-1.843,0.461-2.756,0.461
			c-3.55,0-6.861-2.236-8.073-5.777c-2.577-7.543-4.77-15.275-6.545-23.074h-45.602c-1.775,7.8-3.968,15.531-6.545,23.074
			c-1.519,4.454-6.357,6.844-10.829,5.316c-4.463-1.527-6.844-6.374-5.325-10.837c3.081-9.028,5.572-18.347,7.407-27.716
			c0.785-4.011,4.301-6.903,8.38-6.903h59.426c4.079,0,7.595,2.893,8.38,6.903c1.835,9.37,4.326,18.688,7.407,27.716
			C303.019,81.749,300.638,86.596,296.175,88.124z M317.611,129.894c3.84-2.739,9.165-1.835,11.904,2.005
			c13.952,19.618,30.967,36.634,50.577,50.586c3.84,2.731,4.736,8.064,2.005,11.895c-1.664,2.347-4.292,3.593-6.963,3.593
			c-1.707,0-3.43-0.512-4.932-1.579c-21.163-15.061-39.535-33.425-54.596-54.605C312.875,137.95,313.771,132.625,317.611,129.894z
			 M384.282,469.333h-54.426c-4.71,0-8.533-3.814-8.533-8.533c0-4.71,3.823-8.533,8.533-8.533h54.426
			c4.71,0,8.533,3.823,8.533,8.533C392.815,465.519,388.992,469.333,384.282,469.333z M469.333,460.8
			c0,4.719-3.823,8.533-8.533,8.533h-29.867c-4.71,0-8.533-3.814-8.533-8.533c0-4.71,3.823-8.533,8.533-8.533h21.333v-21.333
			c0-4.71,3.823-8.533,8.533-8.533s8.533,3.823,8.533,8.533V460.8z M469.333,375.748c0,4.71-3.823,8.533-8.533,8.533
			s-8.533-3.823-8.533-8.533v-64.401c0-4.71,3.823-8.533,8.533-8.533s8.533,3.823,8.533,8.533V375.748z M469.333,256.154
			c0,4.71-3.823,8.533-8.533,8.533s-8.533-3.823-8.533-8.533v-22.955c-7.799-1.775-15.531-3.968-23.066-6.545
			c-4.463-1.519-6.844-6.366-5.316-10.829c1.519-4.463,6.349-6.852,10.829-5.316c9.028,3.081,18.355,5.572,27.725,7.407
			c4.002,0.776,6.895,4.284,6.895,8.371V256.154z"/>
	</g>
</g>
</svg>